<?xml version="1.0" encoding="utf-8"?>
<!-- Generator: Adobe Illustrator 21.0.2, SVG Export Plug-In . SVG Version: 6.00 Build 0)  -->
<svg version="1.1" id="Layer_1" xmlns="http://www.w3.org/2000/svg" xmlns:xlink="http://www.w3.org/1999/xlink" x="0px" y="0px"
	 viewBox="0 0 1536 1008" style="enable-background:new 0 0 1536 1008;" xml:space="preserve">
<style type="text/css">
	.st0{fill:#00BEC2;stroke:#0E293C;stroke-width:2.8346;stroke-miterlimit:10;}
	.st1{fill:#0E293C;}
</style>
<polygon class="st0" points="315.5,368.7 315.5,195 165,108.1 14.5,195 14.5,368.7 165,455.6 "/>
<polygon class="st0" points="616.1,368.7 616.1,194.9 465.6,108 315.1,194.9 315.1,368.7 465.6,455.6 "/>
<polygon class="st0" points="917.5,368.7 917.5,194.9 767,108 616.5,194.9 616.5,368.7 767,455.6 "/>
<polygon class="st0" points="1067.8,629.1 1067.8,455.3 917.3,368.4 766.8,455.3 766.8,629.1 917.3,716 "/>
<polygon class="st0" points="1369.2,629.1 1369.2,455.3 1218.7,368.4 1068.2,455.3 1068.2,629.1 1218.7,716 "/>
<polygon class="st0" points="1519.5,369.1 1519.5,195.3 1369,108.4 1218.5,195.3 1218.5,369.1 1369,456 "/>
<polygon class="st0" points="1519.5,890.4 1519.5,716.7 1369,629.8 1218.5,716.7 1218.5,890.4 1369,977.3 "/>
<g id="Curva_travelling">
	<path class="st1" d="M226.5,372.5c-47.1-57.6-60.7-132.3-38.2-196.2c1-2.9,1.1-5.5,0.2-5.7c-9.3-1.9-18.7-3.8-28-5.7
		c-1-0.2-3.8,2.1-6.2,5.1c-52,66.1-65.6,151.4-38.2,223.9c1.3,3.4,5.2,5.5,8.8,4.7c33.1-6.7,66.1-13.4,99.2-20.1
		C227.7,377.8,228.7,375.2,226.5,372.5z M172.9,218c-13.5-1-27-1.9-40.6-2.9c2.4-5.3,5-10.6,7.7-15.7c11.9,1.2,23.8,2.5,35.7,3.7
		C174.6,208.1,173.6,213,172.9,218z M171.5,229.4c-0.5,5-0.8,10.1-0.8,15.2c-16.3-0.3-32.6-0.6-48.9-0.9c1.6-5.5,3.5-10.9,5.5-16.3
		C142,228,156.7,228.7,171.5,229.4z M170.7,256.1c0.2,5.1,0.6,10.2,1.2,15.2c-19,0.5-37.9,1-56.9,1.6c0.9-5.6,2-11.2,3.3-16.7
		C135.8,256.2,153.3,256.1,170.7,256.1z M173.6,282.8c0.9,5.1,1.9,10.1,3.2,15.1c-21.5,1.5-43,3-64.5,4.6c0.1-5.6,0.5-11.2,1.1-16.9
		C133.5,284.7,153.5,283.8,173.6,282.8z M180,309.2c1.5,5,3.3,9.9,5.2,14.7c-23.9,2.7-47.8,5.3-71.7,8c-0.6-5.6-1-11.2-1.2-16.8
		C134.9,313.2,157.4,311.2,180,309.2z M189.9,335c2.2,4.8,4.6,9.5,7.2,14.2c-26.1,4-52.3,7.9-78.4,11.9c-1.4-5.4-2.5-10.9-3.4-16.4
		C140.1,341.4,165,338.2,189.9,335z M182.4,180.9c-1.3,3.7-2.6,7.4-3.7,11.1c-10.7-1.4-21.3-2.8-32-4.2c2.4-3.9,4.9-7.7,7.5-11.5
		C163.6,177.8,173,179.4,182.4,180.9z M126.4,385.5c-1.6-4-3-8.1-4.3-12.2c27.1-4.6,54.1-9.1,81.2-13.7c2.2,3.5,4.5,7,6.9,10.4
		C182.3,375.2,154.4,380.4,126.4,385.5z"/>
</g>
<g id="Curva_travelling_1_">
	<path class="st1" d="M1430.5,894.2c-47.1-57.6-60.7-132.3-38.2-196.2c1-2.9,1.1-5.5,0.2-5.7c-9.3-1.9-18.7-3.8-28-5.7
		c-1-0.2-3.8,2.1-6.2,5.1c-52,66.1-65.6,151.4-38.2,223.9c1.3,3.4,5.2,5.5,8.8,4.7c33.1-6.7,66.1-13.4,99.2-20.1
		C1431.7,899.5,1432.7,896.8,1430.5,894.2z M1376.8,739.7c-13.5-1-27-1.9-40.6-2.9c2.4-5.3,5-10.6,7.7-15.7
		c11.9,1.2,23.8,2.5,35.7,3.7C1378.6,729.7,1377.6,734.7,1376.8,739.7z M1375.4,751.1c-0.5,5-0.8,10.1-0.8,15.2
		c-16.3-0.3-32.6-0.6-48.9-0.9c1.6-5.5,3.5-10.9,5.5-16.3C1346,749.7,1360.7,750.4,1375.4,751.1z M1374.7,777.8
		c0.2,5.1,0.6,10.2,1.2,15.2c-19,0.5-37.9,1-56.9,1.6c0.9-5.6,2-11.2,3.3-16.7C1339.8,777.8,1357.3,777.8,1374.7,777.8z
		 M1377.6,804.5c0.9,5.1,1.9,10.1,3.2,15.1c-21.5,1.5-43,3-64.5,4.6c0.1-5.6,0.5-11.2,1.1-16.9
		C1337.4,806.4,1357.5,805.5,1377.6,804.5z M1384,830.9c1.5,5,3.3,9.9,5.2,14.7c-23.9,2.7-47.8,5.3-71.7,8c-0.6-5.6-1-11.2-1.2-16.8
		C1338.9,834.9,1361.4,832.9,1384,830.9z M1393.9,856.6c2.2,4.8,4.6,9.5,7.2,14.2c-26.1,4-52.3,7.9-78.4,11.9
		c-1.4-5.4-2.5-10.9-3.4-16.4C1344.1,863.1,1369,859.9,1393.9,856.6z M1386.4,702.6c-1.3,3.7-2.6,7.4-3.7,11.1
		c-10.7-1.4-21.3-2.8-32-4.2c2.4-3.9,4.9-7.7,7.5-11.5C1367.6,699.5,1377,701.1,1386.4,702.6z M1330.4,907.2c-1.6-4-3-8.1-4.3-12.2
		c27.1-4.6,54.1-9.1,81.2-13.7c2.2,3.5,4.5,7,6.9,10.4C1386.3,896.8,1358.3,902,1330.4,907.2z"/>
</g>
<path class="st1" d="M535.9,212.2c-38.8-38.8-101.9-38.8-140.7,0c-13.6,13.6-22.9,30.7-26.9,49.5c-3.9,18.3-2.6,37.2,3.7,54.7
	c0.8,2.1,3.1,3.2,5.2,2.4c2.1-0.8,3.2-3.1,2.4-5.2c-5.8-16.1-7-33.5-3.4-50.2c3.7-17.2,12.2-32.9,24.7-45.4
	c35.6-35.6,93.6-35.6,129.3,0c17,17,26.5,39.5,26.8,63.5c0.3,24-8.6,46.7-25.1,64c-0.2,0.2-0.4,0.4-0.6,0.6c-0.3,0.4-0.7,0.7-1,1.1
	c-35.6,35.6-93.6,35.6-129.3,0c-0.2-0.2-0.4-0.4-0.6-0.6c0-0.4,0-0.7,0-1.1c0-0.8,0-1.6,0-2.4c0-0.3,0-0.5,0-0.8
	c0-0.5,0.1-1.1,0.1-1.6c0-0.3,0.1-0.6,0.1-1c0-0.5,0.1-1,0.1-1.4c0-0.3,0.1-0.7,0.1-1c0.1-0.5,0.1-0.9,0.2-1.4
	c0.1-0.3,0.1-0.7,0.2-1c0.1-0.4,0.1-0.9,0.2-1.3c0.1-0.3,0.1-0.7,0.2-1c0.1-0.4,0.2-0.9,0.3-1.3c0.1-0.3,0.2-0.7,0.2-1
	c0.1-0.4,0.2-0.8,0.3-1.3c0.1-0.3,0.2-0.7,0.3-1c0.1-0.4,0.2-0.8,0.4-1.2c0.1-0.3,0.2-0.7,0.3-1c0.1-0.4,0.3-0.8,0.4-1.2
	c0.1-0.3,0.2-0.7,0.4-1c0.1-0.4,0.3-0.8,0.4-1.2c0.1-0.3,0.3-0.7,0.4-1c0.2-0.4,0.3-0.8,0.5-1.2c0.1-0.3,0.3-0.7,0.4-1
	c0.2-0.4,0.3-0.8,0.5-1.2c0.2-0.3,0.3-0.6,0.5-1c0.2-0.4,0.4-0.8,0.6-1.1c0.2-0.3,0.3-0.6,0.5-0.9c0.2-0.4,0.4-0.7,0.6-1.1
	c0.2-0.3,0.3-0.6,0.5-0.9c0.2-0.4,0.4-0.7,0.6-1.1c0.2-0.3,0.4-0.6,0.6-0.9c0.2-0.4,0.5-0.7,0.7-1.1c0.2-0.3,0.4-0.6,0.6-0.9
	c0.2-0.4,0.5-0.7,0.7-1c0.2-0.3,0.4-0.6,0.6-0.9c0.3-0.3,0.5-0.7,0.8-1c0.2-0.3,0.4-0.6,0.6-0.8c0.3-0.3,0.5-0.7,0.8-1
	c0.2-0.3,0.4-0.5,0.7-0.8c0.3-0.3,0.6-0.7,0.9-1c0.2-0.3,0.5-0.5,0.7-0.8c0.3-0.3,0.6-0.6,0.9-0.9c0.2-0.3,0.5-0.5,0.7-0.8
	c0.3-0.3,0.6-0.6,0.9-0.9c0.2-0.2,0.5-0.5,0.7-0.7c0.3-0.3,0.7-0.6,1-0.9c0.3-0.2,0.5-0.5,0.8-0.7c0.3-0.3,0.7-0.6,1-0.9
	c0.3-0.2,0.5-0.4,0.8-0.6c0.4-0.3,0.7-0.6,1.1-0.9c0.3-0.2,0.5-0.4,0.8-0.6c0.4-0.3,0.8-0.6,1.2-0.9c0.2-0.2,0.5-0.4,0.7-0.5
	c0.4-0.3,0.9-0.6,1.3-0.9c0.2-0.1,0.4-0.3,0.7-0.4c0.6-0.4,1.2-0.7,1.8-1.1c0.1-0.1,0.2-0.1,0.3-0.2c0.7-0.4,1.4-0.8,2.1-1.2
	c0.2-0.1,0.5-0.3,0.7-0.4c0.5-0.2,0.9-0.5,1.4-0.7c0.3-0.2,0.6-0.3,0.9-0.4c0.4-0.2,0.8-0.4,1.2-0.6c7.3,7,17.1,11,27.3,11
	s20-4,27.3-11c14.3,6.6,26.1,18.5,32.4,33c0.9,2,3.3,3,5.3,2.1c2-0.9,3-3.3,2.1-5.3c-7-15.8-19.1-28.5-34.4-36.1
	c4.5-6.5,6.9-14.2,6.9-22.2c0-21.8-17.7-39.6-39.6-39.6c-2.2,0-4.1,1.8-4.1,4.1c0,2.2,1.8,4.1,4.1,4.1c17.3,0,31.5,14.1,31.5,31.5
	c0,7.8-2.9,15.2-8.1,21c0,0,0,0,0,0c-6,6.6-14.5,10.4-23.3,10.4c-8.9,0-17.4-3.8-23.3-10.4c0,0,0,0,0,0c-5.2-5.8-8.1-13.3-8.1-21
	c0-8.5,3.3-16.4,9.3-22.4c1.6-1.6,1.6-4.1,0-5.7c-1.6-1.6-4.1-1.6-5.7,0c-7.6,7.5-11.7,17.5-11.7,28.1c0,8,2.4,15.7,6.8,22.2
	c0,0-0.1,0-0.1,0.1c-0.3,0.2-0.6,0.3-0.9,0.5c-0.5,0.2-1,0.5-1.4,0.8c-0.3,0.2-0.7,0.4-1,0.6c-0.4,0.3-0.9,0.5-1.3,0.8
	c-0.3,0.2-0.7,0.4-1,0.6c-0.4,0.3-0.8,0.5-1.2,0.8c-0.3,0.2-0.7,0.4-1,0.7c-0.4,0.3-0.8,0.5-1.2,0.8c-0.3,0.2-0.7,0.5-1,0.7
	c-0.4,0.3-0.8,0.6-1.1,0.8c-0.3,0.2-0.6,0.5-1,0.7c-0.4,0.3-0.7,0.6-1.1,0.9c-0.3,0.3-0.6,0.5-0.9,0.8c-0.4,0.3-0.7,0.6-1.1,0.9
	c-0.3,0.3-0.6,0.5-0.9,0.8c-0.3,0.3-0.7,0.6-1,0.9c-0.3,0.3-0.6,0.6-0.9,0.8c-0.3,0.3-0.7,0.7-1,1c-0.3,0.3-0.6,0.6-0.8,0.9
	c-0.3,0.3-0.6,0.7-1,1c-0.3,0.3-0.5,0.6-0.8,0.9c-0.3,0.4-0.6,0.7-0.9,1.1c-0.3,0.3-0.5,0.6-0.8,0.9c-0.3,0.4-0.6,0.8-0.9,1.2
	c-0.2,0.3-0.5,0.6-0.7,0.9c-0.3,0.4-0.6,0.8-1,1.3c-0.2,0.3-0.4,0.5-0.6,0.8c-0.4,0.6-0.8,1.1-1.2,1.7c-0.1,0.1-0.2,0.3-0.3,0.4
	c-0.5,0.7-0.9,1.4-1.4,2.2c-0.2,0.3-0.3,0.5-0.5,0.8c-0.3,0.5-0.6,1-0.9,1.5c-0.2,0.3-0.3,0.6-0.5,0.9c-0.2,0.4-0.5,0.9-0.7,1.3
	c-0.2,0.3-0.3,0.7-0.5,1c-0.2,0.4-0.4,0.9-0.7,1.3c-0.2,0.3-0.3,0.7-0.5,1.1c-0.2,0.4-0.4,0.9-0.6,1.3c-0.2,0.4-0.3,0.7-0.5,1.1
	c-0.2,0.4-0.4,0.9-0.5,1.3c-0.1,0.4-0.3,0.7-0.4,1.1c-0.2,0.4-0.3,0.9-0.5,1.3c-0.1,0.4-0.3,0.8-0.4,1.1c-0.2,0.4-0.3,0.9-0.4,1.3
	c-0.1,0.4-0.2,0.8-0.4,1.2c-0.1,0.5-0.3,0.9-0.4,1.4c-0.1,0.4-0.2,0.8-0.3,1.2c-0.1,0.5-0.2,0.9-0.3,1.4c-0.1,0.4-0.2,0.8-0.3,1.2
	c-0.1,0.5-0.2,0.9-0.3,1.4c-0.1,0.4-0.2,0.8-0.2,1.2c-0.1,0.5-0.2,1-0.2,1.5c-0.1,0.4-0.1,0.8-0.2,1.2c-0.1,0.5-0.1,1-0.2,1.5
	c0,0.4-0.1,0.7-0.1,1.1c-0.1,0.5-0.1,1.1-0.1,1.6c0,0.4-0.1,0.7-0.1,1.1c0,0.6-0.1,1.2-0.1,1.8c0,0.3,0,0.6,0,0.9
	c0,0.9-0.1,1.8-0.1,2.7c0,1,0,1.9,0.1,2.9c0,0.2,0,0.5,0.1,0.7c0,0,0,0,0,0.1c0,0.2,0.1,0.4,0.2,0.6c0,0,0,0,0,0.1
	c0.1,0.2,0.2,0.4,0.3,0.6c0,0,0,0,0,0.1c0.1,0.2,0.3,0.3,0.4,0.5c0,0,0,0,0,0l0.5,0.6c0.4,0.4,0.8,0.9,1.2,1.3
	c19.4,19.4,44.9,29.1,70.4,29.1s51-9.7,70.4-29.1c0.4-0.4,0.8-0.9,1.2-1.3l0.5-0.6c17.9-18.9,27.7-43.6,27.4-69.7
	C564.7,255.2,554.3,230.6,535.9,212.2z"/>
<path class="st1" d="M987.9,472.2c-38.8-38.8-101.9-38.8-140.7,0c-13.6,13.6-22.9,30.7-26.9,49.5c-3.9,18.3-2.6,37.2,3.7,54.7
	c0.8,2.1,3.1,3.2,5.2,2.4c2.1-0.8,3.2-3.1,2.4-5.2c-5.8-16.1-7-33.5-3.4-50.2c3.7-17.2,12.2-32.9,24.7-45.4
	c35.6-35.6,93.6-35.6,129.3,0c17,17,26.5,39.5,26.8,63.5c0.3,24-8.6,46.7-25.1,64c-0.2,0.2-0.4,0.4-0.6,0.6c-0.3,0.4-0.7,0.7-1,1.1
	c-35.6,35.6-93.6,35.6-129.3,0c-0.2-0.2-0.4-0.4-0.6-0.6c0-0.4,0-0.7,0-1.1c0-0.8,0-1.6,0-2.4c0-0.3,0-0.5,0-0.8
	c0-0.5,0.1-1.1,0.1-1.6c0-0.3,0.1-0.6,0.1-1c0-0.5,0.1-1,0.1-1.4c0-0.3,0.1-0.7,0.1-1c0.1-0.5,0.1-0.9,0.2-1.4
	c0.1-0.3,0.1-0.7,0.2-1c0.1-0.4,0.1-0.9,0.2-1.3c0.1-0.3,0.1-0.7,0.2-1c0.1-0.4,0.2-0.9,0.3-1.3c0.1-0.3,0.2-0.7,0.2-1
	c0.1-0.4,0.2-0.8,0.3-1.3c0.1-0.3,0.2-0.7,0.3-1c0.1-0.4,0.2-0.8,0.4-1.2c0.1-0.3,0.2-0.7,0.3-1c0.1-0.4,0.3-0.8,0.4-1.2
	c0.1-0.3,0.2-0.7,0.4-1c0.1-0.4,0.3-0.8,0.4-1.2c0.1-0.3,0.3-0.7,0.4-1c0.2-0.4,0.3-0.8,0.5-1.2c0.1-0.3,0.3-0.7,0.4-1
	c0.2-0.4,0.3-0.8,0.5-1.2c0.2-0.3,0.3-0.6,0.5-1c0.2-0.4,0.4-0.8,0.6-1.1c0.2-0.3,0.3-0.6,0.5-0.9c0.2-0.4,0.4-0.7,0.6-1.1
	c0.2-0.3,0.3-0.6,0.5-0.9c0.2-0.4,0.4-0.7,0.6-1.1c0.2-0.3,0.4-0.6,0.6-0.9c0.2-0.4,0.5-0.7,0.7-1.1c0.2-0.3,0.4-0.6,0.6-0.9
	c0.2-0.4,0.5-0.7,0.7-1c0.2-0.3,0.4-0.6,0.6-0.9c0.3-0.3,0.5-0.7,0.8-1c0.2-0.3,0.4-0.6,0.6-0.8c0.3-0.3,0.5-0.7,0.8-1
	c0.2-0.3,0.4-0.5,0.7-0.8c0.3-0.3,0.6-0.7,0.9-1c0.2-0.3,0.5-0.5,0.7-0.8c0.3-0.3,0.6-0.6,0.9-0.9c0.2-0.3,0.5-0.5,0.7-0.8
	c0.3-0.3,0.6-0.6,0.9-0.9c0.2-0.2,0.5-0.5,0.7-0.7c0.3-0.3,0.7-0.6,1-0.9c0.3-0.2,0.5-0.5,0.8-0.7c0.3-0.3,0.7-0.6,1-0.9
	c0.3-0.2,0.5-0.4,0.8-0.6c0.4-0.3,0.7-0.6,1.1-0.9c0.3-0.2,0.5-0.4,0.8-0.6c0.4-0.3,0.8-0.6,1.2-0.9c0.2-0.2,0.5-0.4,0.7-0.5
	c0.4-0.3,0.9-0.6,1.3-0.9c0.2-0.1,0.4-0.3,0.7-0.4c0.6-0.4,1.2-0.7,1.8-1.1c0.1-0.1,0.2-0.1,0.3-0.2c0.7-0.4,1.4-0.8,2.1-1.2
	c0.2-0.1,0.5-0.3,0.7-0.4c0.5-0.2,0.9-0.5,1.4-0.7c0.3-0.2,0.6-0.3,0.9-0.4c0.4-0.2,0.8-0.4,1.2-0.6c7.3,7,17.1,11,27.3,11
	c10.2,0,20-4,27.3-11c14.3,6.6,26.1,18.5,32.4,33c0.9,2,3.3,3,5.3,2.1c2-0.9,3-3.3,2.1-5.3c-7-15.8-19.1-28.5-34.4-36.1
	c4.5-6.5,6.9-14.2,6.9-22.2c0-21.8-17.7-39.6-39.6-39.6c-2.2,0-4.1,1.8-4.1,4.1c0,2.2,1.8,4.1,4.1,4.1c17.3,0,31.5,14.1,31.5,31.5
	c0,7.8-2.9,15.2-8.1,21c0,0,0,0,0,0c-6,6.6-14.5,10.4-23.3,10.4c-8.9,0-17.4-3.8-23.3-10.4c0,0,0,0,0,0c-5.2-5.8-8.1-13.3-8.1-21
	c0-8.5,3.3-16.4,9.3-22.4c1.6-1.6,1.6-4.1,0-5.7c-1.6-1.6-4.1-1.6-5.7,0c-7.6,7.5-11.7,17.5-11.7,28.1c0,8,2.4,15.7,6.8,22.2
	c0,0-0.1,0-0.1,0.1c-0.3,0.2-0.6,0.3-0.9,0.5c-0.5,0.2-1,0.5-1.4,0.8c-0.3,0.2-0.7,0.4-1,0.6c-0.4,0.3-0.9,0.5-1.3,0.8
	c-0.3,0.2-0.7,0.4-1,0.6c-0.4,0.3-0.8,0.5-1.2,0.8c-0.3,0.2-0.7,0.4-1,0.7c-0.4,0.3-0.8,0.5-1.2,0.8c-0.3,0.2-0.7,0.5-1,0.7
	c-0.4,0.3-0.8,0.6-1.1,0.8c-0.3,0.2-0.6,0.5-1,0.7c-0.4,0.3-0.7,0.6-1.1,0.9c-0.3,0.3-0.6,0.5-0.9,0.8c-0.4,0.3-0.7,0.6-1.1,0.9
	c-0.3,0.3-0.6,0.5-0.9,0.8c-0.3,0.3-0.7,0.6-1,0.9c-0.3,0.3-0.6,0.6-0.9,0.8c-0.3,0.3-0.7,0.7-1,1c-0.3,0.3-0.6,0.6-0.8,0.9
	c-0.3,0.3-0.6,0.7-1,1c-0.3,0.3-0.5,0.6-0.8,0.9c-0.3,0.4-0.6,0.7-0.9,1.1c-0.3,0.3-0.5,0.6-0.8,0.9c-0.3,0.4-0.6,0.8-0.9,1.2
	c-0.2,0.3-0.5,0.6-0.7,0.9c-0.3,0.4-0.6,0.8-1,1.3c-0.2,0.3-0.4,0.5-0.6,0.8c-0.4,0.6-0.8,1.1-1.2,1.7c-0.1,0.1-0.2,0.3-0.3,0.4
	c-0.5,0.7-0.9,1.4-1.4,2.2c-0.2,0.3-0.3,0.5-0.5,0.8c-0.3,0.5-0.6,1-0.9,1.5c-0.2,0.3-0.3,0.6-0.5,0.9c-0.2,0.4-0.5,0.9-0.7,1.3
	c-0.2,0.3-0.3,0.7-0.5,1c-0.2,0.4-0.4,0.9-0.7,1.3c-0.2,0.3-0.3,0.7-0.5,1.1c-0.2,0.4-0.4,0.9-0.6,1.3c-0.2,0.4-0.3,0.7-0.5,1.1
	c-0.2,0.4-0.4,0.9-0.5,1.3c-0.1,0.4-0.3,0.7-0.4,1.1c-0.2,0.4-0.3,0.9-0.5,1.3c-0.1,0.4-0.3,0.8-0.4,1.1c-0.2,0.4-0.3,0.9-0.4,1.3
	c-0.1,0.4-0.2,0.8-0.4,1.2c-0.1,0.5-0.3,0.9-0.4,1.4c-0.1,0.4-0.2,0.8-0.3,1.2c-0.1,0.5-0.2,0.9-0.3,1.4c-0.1,0.4-0.2,0.8-0.3,1.2
	c-0.1,0.5-0.2,0.9-0.3,1.4c-0.1,0.4-0.2,0.8-0.2,1.2c-0.1,0.5-0.2,1-0.2,1.5c-0.1,0.4-0.1,0.8-0.2,1.2c-0.1,0.5-0.1,1-0.2,1.5
	c0,0.4-0.1,0.7-0.1,1.1c-0.1,0.5-0.1,1.1-0.1,1.6c0,0.4-0.1,0.7-0.1,1.1c0,0.6-0.1,1.2-0.1,1.8c0,0.3,0,0.6,0,0.9
	c0,0.9-0.1,1.8-0.1,2.7c0,1,0,1.9,0.1,2.9c0,0.2,0,0.5,0.1,0.7c0,0,0,0,0,0.1c0,0.2,0.1,0.4,0.2,0.6c0,0,0,0,0,0.1
	c0.1,0.2,0.2,0.4,0.3,0.6c0,0,0,0,0,0.1c0.1,0.2,0.3,0.3,0.4,0.5c0,0,0,0,0,0l0.5,0.6c0.4,0.4,0.8,0.9,1.2,1.3
	c19.4,19.4,44.9,29.1,70.4,29.1s51-9.7,70.4-29.1c0.4-0.4,0.8-0.9,1.2-1.3l0.5-0.6c17.9-18.9,27.7-43.6,27.4-69.7
	C1016.7,515.2,1006.3,490.6,987.9,472.2z"/>
<path class="st1" d="M1438.9,211.2c-38.8-38.8-101.9-38.8-140.7,0c-13.6,13.6-22.9,30.7-26.9,49.5c-3.9,18.3-2.6,37.2,3.7,54.7
	c0.8,2.1,3.1,3.2,5.2,2.4c2.1-0.8,3.2-3.1,2.4-5.2c-5.8-16.1-7-33.5-3.4-50.2c3.7-17.2,12.2-32.9,24.7-45.4
	c35.6-35.6,93.6-35.6,129.3,0c17,17,26.5,39.5,26.8,63.5c0.3,24-8.6,46.7-25.1,64c-0.2,0.2-0.4,0.4-0.6,0.6c-0.3,0.4-0.7,0.7-1,1.1
	c-35.6,35.6-93.6,35.6-129.3,0c-0.2-0.2-0.4-0.4-0.6-0.6c0-0.4,0-0.7,0-1.1c0-0.8,0-1.6,0-2.4c0-0.3,0-0.5,0-0.8
	c0-0.5,0.1-1.1,0.1-1.6c0-0.3,0.1-0.6,0.1-1c0-0.5,0.1-1,0.1-1.4c0-0.3,0.1-0.7,0.1-1c0.1-0.5,0.1-0.9,0.2-1.4
	c0.1-0.3,0.1-0.7,0.2-1c0.1-0.4,0.1-0.9,0.2-1.3c0.1-0.3,0.1-0.7,0.2-1c0.1-0.4,0.2-0.9,0.3-1.3c0.1-0.3,0.2-0.7,0.2-1
	c0.1-0.4,0.2-0.8,0.3-1.3c0.1-0.3,0.2-0.7,0.3-1c0.1-0.4,0.2-0.8,0.4-1.2c0.1-0.3,0.2-0.7,0.3-1c0.1-0.4,0.3-0.8,0.4-1.2
	c0.1-0.3,0.2-0.7,0.4-1c0.1-0.4,0.3-0.8,0.4-1.2c0.1-0.3,0.3-0.7,0.4-1c0.2-0.4,0.3-0.8,0.5-1.2c0.1-0.3,0.3-0.7,0.4-1
	c0.2-0.4,0.3-0.8,0.5-1.2c0.2-0.3,0.3-0.6,0.5-1c0.2-0.4,0.4-0.8,0.6-1.1c0.2-0.3,0.3-0.6,0.5-0.9c0.2-0.4,0.4-0.7,0.6-1.1
	c0.2-0.3,0.3-0.6,0.5-0.9c0.2-0.4,0.4-0.7,0.6-1.1c0.2-0.3,0.4-0.6,0.6-0.9c0.2-0.4,0.5-0.7,0.7-1.1c0.2-0.3,0.4-0.6,0.6-0.9
	c0.2-0.4,0.5-0.7,0.7-1c0.2-0.3,0.4-0.6,0.6-0.9c0.3-0.3,0.5-0.7,0.8-1c0.2-0.3,0.4-0.6,0.6-0.8c0.3-0.3,0.5-0.7,0.8-1
	c0.2-0.3,0.4-0.5,0.7-0.8c0.3-0.3,0.6-0.7,0.9-1c0.2-0.3,0.5-0.5,0.7-0.8c0.3-0.3,0.6-0.6,0.9-0.9c0.2-0.3,0.5-0.5,0.7-0.8
	c0.3-0.3,0.6-0.6,0.9-0.9c0.2-0.2,0.5-0.5,0.7-0.7c0.3-0.3,0.7-0.6,1-0.9c0.3-0.2,0.5-0.5,0.8-0.7c0.3-0.3,0.7-0.6,1-0.9
	c0.3-0.2,0.5-0.4,0.8-0.6c0.4-0.3,0.7-0.6,1.1-0.9c0.3-0.2,0.5-0.4,0.8-0.6c0.4-0.3,0.8-0.6,1.2-0.9c0.2-0.2,0.5-0.4,0.7-0.5
	c0.4-0.3,0.9-0.6,1.3-0.9c0.2-0.1,0.4-0.3,0.7-0.4c0.6-0.4,1.2-0.7,1.8-1.1c0.1-0.1,0.2-0.1,0.3-0.2c0.7-0.4,1.4-0.8,2.1-1.2
	c0.2-0.1,0.5-0.3,0.7-0.4c0.5-0.2,0.9-0.5,1.4-0.7c0.3-0.2,0.6-0.3,0.9-0.4c0.4-0.2,0.8-0.4,1.2-0.6c7.3,7,17.1,11,27.3,11
	c10.2,0,20-4,27.3-11c14.3,6.6,26.1,18.5,32.4,33c0.9,2,3.3,3,5.3,2.1c2-0.9,3-3.3,2.1-5.3c-7-15.8-19.1-28.5-34.4-36.1
	c4.5-6.5,6.9-14.2,6.9-22.2c0-21.8-17.7-39.6-39.6-39.6c-2.2,0-4.1,1.8-4.1,4.1c0,2.2,1.8,4.1,4.1,4.1c17.3,0,31.5,14.1,31.5,31.5
	c0,7.8-2.9,15.2-8.1,21c0,0,0,0,0,0c-6,6.6-14.5,10.4-23.3,10.4s-17.4-3.8-23.3-10.4c0,0,0,0,0,0c-5.2-5.8-8.1-13.3-8.1-21
	c0-8.5,3.3-16.4,9.3-22.4c1.6-1.6,1.6-4.1,0-5.7c-1.6-1.6-4.1-1.6-5.7,0c-7.6,7.5-11.7,17.5-11.7,28.1c0,8,2.4,15.7,6.8,22.2
	c0,0-0.1,0-0.1,0.1c-0.3,0.2-0.6,0.3-0.9,0.5c-0.5,0.2-1,0.5-1.4,0.8c-0.3,0.2-0.7,0.4-1,0.6c-0.4,0.3-0.9,0.5-1.3,0.8
	c-0.3,0.2-0.7,0.4-1,0.6c-0.4,0.3-0.8,0.5-1.2,0.8c-0.3,0.2-0.7,0.4-1,0.7c-0.4,0.3-0.8,0.5-1.2,0.8c-0.3,0.2-0.7,0.5-1,0.7
	c-0.4,0.3-0.8,0.6-1.1,0.8c-0.3,0.2-0.6,0.5-1,0.7c-0.4,0.3-0.7,0.6-1.1,0.9c-0.3,0.3-0.6,0.5-0.9,0.8c-0.4,0.3-0.7,0.6-1.1,0.9
	c-0.3,0.3-0.6,0.5-0.9,0.8c-0.3,0.3-0.7,0.6-1,0.9c-0.3,0.3-0.6,0.6-0.9,0.8c-0.3,0.3-0.7,0.7-1,1c-0.3,0.3-0.6,0.6-0.8,0.9
	c-0.3,0.3-0.6,0.7-1,1c-0.3,0.3-0.5,0.6-0.8,0.9c-0.3,0.4-0.6,0.7-0.9,1.1c-0.3,0.3-0.5,0.6-0.8,0.9c-0.3,0.4-0.6,0.8-0.9,1.2
	c-0.2,0.3-0.5,0.6-0.7,0.9c-0.3,0.4-0.6,0.8-1,1.3c-0.2,0.3-0.4,0.5-0.6,0.8c-0.4,0.6-0.8,1.1-1.2,1.7c-0.1,0.1-0.2,0.3-0.3,0.4
	c-0.5,0.7-0.9,1.4-1.4,2.2c-0.2,0.3-0.3,0.5-0.5,0.8c-0.3,0.5-0.6,1-0.9,1.5c-0.2,0.3-0.3,0.6-0.5,0.9c-0.2,0.4-0.5,0.9-0.7,1.3
	c-0.2,0.3-0.3,0.7-0.5,1c-0.2,0.4-0.4,0.9-0.7,1.3c-0.2,0.3-0.3,0.7-0.5,1.1c-0.2,0.4-0.4,0.9-0.6,1.3c-0.2,0.4-0.3,0.7-0.5,1.1
	c-0.2,0.4-0.4,0.9-0.5,1.3c-0.1,0.4-0.3,0.7-0.4,1.1c-0.2,0.4-0.3,0.9-0.5,1.3c-0.1,0.4-0.3,0.8-0.4,1.1c-0.2,0.4-0.3,0.9-0.4,1.3
	c-0.1,0.4-0.2,0.8-0.4,1.2c-0.1,0.5-0.3,0.9-0.4,1.4c-0.1,0.4-0.2,0.8-0.3,1.2c-0.1,0.5-0.2,0.9-0.3,1.4c-0.1,0.4-0.2,0.8-0.3,1.2
	c-0.1,0.5-0.2,0.9-0.3,1.4c-0.1,0.4-0.2,0.8-0.2,1.2c-0.1,0.5-0.2,1-0.2,1.5c-0.1,0.4-0.1,0.8-0.2,1.2c-0.1,0.5-0.1,1-0.2,1.5
	c0,0.4-0.1,0.7-0.1,1.1c-0.1,0.5-0.1,1.1-0.1,1.6c0,0.4-0.1,0.7-0.1,1.1c0,0.6-0.1,1.2-0.1,1.8c0,0.3,0,0.6,0,0.9
	c0,0.9-0.1,1.8-0.1,2.7c0,1,0,1.9,0.1,2.9c0,0.2,0,0.5,0.1,0.7c0,0,0,0,0,0.1c0,0.2,0.1,0.4,0.2,0.6c0,0,0,0,0,0.1
	c0.1,0.2,0.2,0.4,0.3,0.6c0,0,0,0,0,0.1c0.1,0.2,0.3,0.3,0.4,0.5c0,0,0,0,0,0l0.5,0.6c0.4,0.4,0.8,0.9,1.2,1.3
	c19.4,19.4,44.9,29.1,70.4,29.1c25.5,0,51-9.7,70.4-29.1c0.4-0.4,0.8-0.9,1.2-1.3l0.5-0.6c17.9-18.9,27.7-43.6,27.4-69.7
	C1467.7,254.2,1457.3,229.6,1438.9,211.2z"/>
<g>
	<g>
		<path class="st1" d="M871.7,218.7c-15.6,0-28.3,12.7-28.3,28.3c0,5.7,1.7,11,4.6,15.5l-30.6,30.6c-4.5-2.9-9.8-4.6-15.5-4.6
			c-5.9,0-11.4,1.8-15.9,4.9l-30.9-30.9c2.9-4.4,4.6-9.8,4.6-15.5c0-15.6-12.7-28.3-28.3-28.3c-15.6,0-28.3,12.7-28.3,28.3
			c0,5.7,1.7,11,4.6,15.5l-30.6,30.6c-4.4-2.9-9.8-4.6-15.5-4.6c-15.6,0-28.3,12.7-28.3,28.3s12.7,28.3,28.3,28.3
			c15.6,0,28.3-12.7,28.3-28.3c0-5.7-1.7-11-4.6-15.5l30.6-30.6c4.5,2.9,9.8,4.6,15.5,4.6c5.7,0,11-1.7,15.5-4.6l31.1,31.1
			c-2.7,4.3-4.3,9.5-4.3,15c0,15.6,12.7,28.3,28.3,28.3c15.6,0,28.3-12.7,28.3-28.3c0-5.7-1.7-11-4.6-15.5l30.6-30.6
			c4.4,2.9,9.8,4.6,15.5,4.6c15.6,0,28.3-12.7,28.3-28.3C900,231.4,887.3,218.7,871.7,218.7z M661.3,333.5
			c-9.2,0-16.6-7.5-16.6-16.6c0-9.2,7.5-16.6,16.6-16.6c9.2,0,16.6,7.5,16.6,16.6C678,326,670.5,333.5,661.3,333.5z M731.2,263.7
			c-9.2,0-16.6-7.5-16.6-16.6c0-9.2,7.5-16.6,16.6-16.6c9.2,0,16.6,7.5,16.6,16.6S740.4,263.7,731.2,263.7z M801.8,333.5
			c-9.2,0-16.6-7.5-16.6-16.6s7.5-16.6,16.6-16.6c9.2,0,16.6,7.5,16.6,16.6C818.4,326,811,333.5,801.8,333.5z M871.7,263.7
			c-9.2,0-16.6-7.5-16.6-16.6c0-9.2,7.5-16.6,16.6-16.6c9.2,0,16.6,7.5,16.6,16.6S880.8,263.7,871.7,263.7z"/>
	</g>
</g>
<g>
	<g>
		<path class="st1" d="M725.2,290.7c-2.3-2.3-6-2.3-8.3,0L705,302.6c-2.3,2.3-2.3,6,0,8.3c1.1,1.1,2.6,1.7,4.1,1.7s3-0.6,4.1-1.7
			l11.9-11.9C727.5,296.7,727.5,293,725.2,290.7z"/>
	</g>
</g>
<g>
	<g>
		<path class="st1" d="M828,253.2c-2.3-2.3-6-2.3-8.3,0l-11.9,11.9c-2.3,2.3-2.3,6,0,8.3c1.1,1.1,2.6,1.7,4.1,1.7
			c1.5,0,3-0.6,4.1-1.7l11.9-11.9C830.3,259.2,830.3,255.5,828,253.2z"/>
	</g>
</g>
<g>
	<g>
		<path class="st1" d="M1323.7,479.7c-15.6,0-28.3,12.7-28.3,28.3c0,5.7,1.7,11,4.6,15.5l-30.6,30.6c-4.5-2.9-9.8-4.6-15.5-4.6
			c-5.9,0-11.4,1.8-15.9,4.9l-30.9-30.9c2.9-4.4,4.6-9.8,4.6-15.5c0-15.6-12.7-28.3-28.3-28.3s-28.3,12.7-28.3,28.3
			c0,5.7,1.7,11,4.6,15.5l-30.6,30.6c-4.4-2.9-9.8-4.6-15.5-4.6c-15.6,0-28.3,12.7-28.3,28.3c0,15.6,12.7,28.3,28.3,28.3
			c15.6,0,28.3-12.7,28.3-28.3c0-5.7-1.7-11-4.6-15.5l30.6-30.6c4.5,2.9,9.8,4.6,15.5,4.6c5.7,0,11-1.7,15.5-4.6l31.1,31.1
			c-2.7,4.3-4.3,9.5-4.3,15c0,15.6,12.7,28.3,28.3,28.3c15.6,0,28.3-12.7,28.3-28.3c0-5.7-1.7-11-4.6-15.5l30.6-30.6
			c4.4,2.9,9.8,4.6,15.5,4.6c15.6,0,28.3-12.7,28.3-28.3C1352,492.4,1339.3,479.7,1323.7,479.7z M1113.3,594.5
			c-9.2,0-16.6-7.5-16.6-16.6c0-9.2,7.5-16.6,16.6-16.6c9.2,0,16.6,7.5,16.6,16.6C1130,587,1122.5,594.5,1113.3,594.5z
			 M1183.2,524.7c-9.2,0-16.6-7.5-16.6-16.6c0-9.2,7.5-16.6,16.6-16.6c9.2,0,16.6,7.5,16.6,16.6
			C1199.8,517.2,1192.4,524.7,1183.2,524.7z M1253.8,594.5c-9.2,0-16.6-7.5-16.6-16.6c0-9.2,7.5-16.6,16.6-16.6
			c9.2,0,16.6,7.5,16.6,16.6C1270.4,587,1263,594.5,1253.8,594.5z M1323.7,524.7c-9.2,0-16.6-7.5-16.6-16.6
			c0-9.2,7.5-16.6,16.6-16.6c9.2,0,16.6,7.5,16.6,16.6C1340.3,517.2,1332.8,524.7,1323.7,524.7z"/>
	</g>
</g>
<g>
	<g>
		<path class="st1" d="M1177.2,551.7c-2.3-2.3-6-2.3-8.3,0l-11.9,11.9c-2.3,2.3-2.3,6,0,8.3c1.1,1.1,2.6,1.7,4.1,1.7s3-0.6,4.1-1.7
			l11.9-11.9C1179.5,557.7,1179.5,554,1177.2,551.7z"/>
	</g>
</g>
<g>
	<g>
		<path class="st1" d="M1280,514.2c-2.3-2.3-6-2.3-8.3,0l-11.9,11.9c-2.3,2.3-2.3,6,0,8.3c1.1,1.1,2.6,1.7,4.1,1.7
			c1.5,0,3-0.6,4.1-1.7l11.9-11.9C1282.3,520.2,1282.3,516.5,1280,514.2z"/>
	</g>
</g>
</svg>
